PathFileType	4	(X/Y/Z)	Kaydara																																																																																																																									
DataRate	CameraRate	NumFrames	NumMarkers	Units	OrigDataRate	OrigDataStartFrame	OrigNumFrames																																																																																																																					
30	30	4	41	mm	30	174	230																																																																																																																					
Frame#	Time	PAIB_LFHD			PAIB_RFHD			PAIB_LBHD			PAIB_RBHD			PAIB_LFTShould			PAIB_RFTShould			PAIB_LRRShould			PAIB_RRRShould			PAIB_T10			PAIB_STRN			PAIB_TRUN			PAIB_LSHO			PAIB_LUPA			PAIB_LELB			PAIB_LFRM			PAIB_LWRA			PAIB_LWRB			PAIB_LFIN			PAIB_RSHO			PAIB_RUPA			PAIB_RELB			PAIB_RFRM			PAIB_RWRA			PAIB_RWRB			PAIB_RFIN			PAIB_LFWT			PAIB_RFWT			PAIB_LBWT			PAIB_RBWT			PAIB_LTHI			PAIB_LKNE			PAIB_LSHN			PAIB_LANK			PAIB_LHEE			PAIB_LTOE			PAIB_RTHI			PAIB_RKNE			PAIB_RSHN			PAIB_RANK			PAIB_RHEE			PAIB_RTOE		
		X1	Y1	Z1	X2	Y2	Z2	X3	Y3	Z3	X4	Y4	Z4	X5	Y5	Z5	X6	Y6	Z6	X7	Y7	Z7	X8	Y8	Z8	X9	Y9	Z9	X10	Y10	Z10	X11	Y11	Z11	X12	Y12	Z12	X13	Y13	Z13	X14	Y14	Z14	X15	Y15	Z15	X16	Y16	Z16	X17	Y17	Z17	X18	Y18	Z18	X19	Y19	Z19	X20	Y20	Z20	X21	Y21	Z21	X22	Y22	Z22	X23	Y23	Z23	X24	Y24	Z24	X25	Y25	Z25	X26	Y26	Z26	X27	Y27	Z27	X28	Y28	Z28	X29	Y29	Z29	X30	Y30	Z30	X31	Y31	Z31	X32	Y32	Z32	X33	Y33	Z33	X34	Y34	Z34	X35	Y35	Z35	X36	Y36	Z36	X37	Y37	Z37	X38	Y38	Z38	X39	Y39	Z39	X40	Y40	Z40	X41	Y41	Z41
																																																																																																																												
173	5.753	250.42055	1645.63553	345.58212	66.54243	1640.70206	331.03718	268.71391	1610.20309	222.59886	65.72118	1617.13089	217.79697	228.46064	1377.55569	345.92861	106.50443	1368.35968	337.72774	244.99437	1440.93506	198.20637	90.9156	1433.28812	201.55733	174.64546	1277.44545	119.71571	176.28052	1307.62405	379.38049	178.61013	1206.32912	401.745	359.65046	1390.9758	274.89473	427.43965	1169.10988	281.38887	451.60854	1084.43886	247.43715	471.60664	979.59389	314.61414	414.79721	891.99226	430.51846	452.12372	856.45729	366.75476	466.03752	838.54309	437.06429	-20.00953	1365.90469	273.22437	-74.99933	1194.97963	209.387	-91.80173	1079.44405	187.62156	-111.75345	941.89301	199.10177	-60.82142	823.24005	286.86481	-124.45617	817.93869	230.26634	-121.14749	772.45705	289.73082	298.91504	915.96252	346.39107	67.61457	932.35626	374.04041	209.54006	963.12958	136.43545	65.83861	963.10707	152.91053	255.99113	701.21162	125.72257	319.89958	460.04139	184.16758	282.16795	299.22127	58.0037	274.96298	237.04054	-138.52822	223.49499	276.30138	-173.52509	227.04824	63.89967	-107.93296	20.79837	657.64816	263.67601	52.02654	462.68635	431.60301	124.97149	284.10889	466.88362	92.78504	76.26402	409.15447	150.17921	80.51598	350.69534	122.04657	54.33446	574.72073
174	5.787	250.04919	1651.76361	389.50775	66.03123	1647.44614	376.81107	267.0015	1617.05109	266.02276	63.98237	1624.58496	263.42409	230.03925	1383.11676	389.19754	108.11212	1374.42352	384.35341	241.80267	1447.16675	241.15309	87.50714	1439.54056	248.8052	168.70947	1283.80508	164.48301	178.38413	1313.24234	423.93234	181.21029	1211.77139	445.7785	359.01936	1396.69525	314.30319	425.32845	1173.72696	319.02817	448.38505	1089.65767	283.89006	468.20389	982.71248	346.1718	410.9409	889.42238	457.29935	449.34017	857.26608	392.02946	461.9643	835.4715	461.6114	-20.8045	1371.99127	324.53159	-78.71342	1200.21881	265.41481	-97.00883	1084.12918	246.4871	-115.09625	946.44447	265.802	-61.36441	834.47968	360.26047	-125.15933	824.28818	304.62633	-121.5148	783.56651	367.09991	296.47375	920.84511	389.66949	64.96884	937.46429	417.75002	208.82057	964.7065	178.33344	65.22059	971.44653	196.01196	255.91063	684.95079	192.67124	322.49695	456.1853	280.11843	282.0122	307.77695	141.93917	277.00283	267.09871	-62.11193	223.3383	307.70298	-92.01246	241.39725	92.48845	-43.32678	20.48891	664.45518	291.62394	49.23374	460.52456	448.64143	123.81402	280.92396	478.35457	93.10381	74.78509	412.27917	150.9704	82.58344	351.91578	123.13427	52.91161	576.10352
175	5.82	250.70854	1658.43994	432.85046	66.55869	1654.75189	421.99497	266.30402	1623.82385	309.12725	63.30449	1632.06909	308.5792	231.8416	1389.5752	430.92464	109.54512	1381.17035	429.06414	239.5969	1453.59131	283.10022	85.45858	1446.86584	294.21192	163.85881	1291.12762	207.19828	180.81253	1320.01251	466.71711	183.50855	1218.50037	488.37814	359.1835	1402.48245	352.21184	424.0316	1178.69423	352.04796	445.4018	1095.07118	315.28439	465.0309	986.11465	373.57704	406.83296	888.01468	480.23079	445.80338	858.49136	414.1555	457.44522	833.91792	483.1115	-20.25551	1379.22699	373.31039	-82.24796	1206.64452	322.66342	-102.35944	1089.95201	308.64756	-119.13437	953.3165	336.11977	-60.65353	847.95799	435.1339	-126.51221	833.60092	382.75703	-120.53784	797.80479	447.70367	292.95319	930.45822	434.07467	60.73589	943.23189	457.94075	210.35254	971.45393	220.94555	66.42869	979.7068	236.78505	255.50348	685.50583	257.44671	325.9211	463.25813	370.3566	284.2178	318.38322	233.96652	275.63665	280.73887	29.50989	220.05131	319.66358	0.21989	251.61879	108.27398	55.34058	20.35078	671.70479	317.68795	47.70419	459.95861	464.62929	120.17846	278.40567	487.04094	93.20076	75.90767	412.39243	151.82602	84.08456	352.18719	122.7	52.18115	576.4677
176	5.853	252.21653	1664.81201	475.89771	67.94647	1661.81946	466.55567	266.66105	1630.33813	351.97525	63.64375	1639.37485	353.14262	232.78688	1396.31577	471.83704	110.99836	1388.89328	472.37663	237.99887	1460.20386	324.8806	84.18125	1454.71512	338.05588	160.13285	1298.90976	248.68021	182.20634	1327.08282	508.39443	184.47258	1225.43655	529.72294	359.56043	1408.65799	390.62794	422.95135	1183.96805	382.73945	441.49147	1100.82764	343.4914	461.28063	989.56718	397.23225	403.87917	887.46307	500.68127	442.1286	860.48271	432.71667	454.03927	833.03581	500.76538	-19.27051	1387.87766	420.11726	-84.59134	1214.80736	379.41704	-106.6972	1097.94693	370.91175	-122.39582	963.1517	407.89482	-58.64753	864.33739	510.55168	-127.87099	847.03667	462.80254	-117.69841	815.62813	529.78138	288.58656	939.73633	476.69472	55.67854	948.34328	497.41676	211.83088	979.67903	264.01993	67.69992	986.5818	276.69559	260.71947	690.98	314.70449	328.15826	478.32924	457.83909	286.91961	326.07296	330.21393	274.05518	276.6066	128.1852	216.58869	311.40081	97.45551	256.19051	108.77517	171.00836	21.40231	678.83263	341.06094	45.68212	458.27213	475.9037	119.30285	276.4612	492.74567	93.66464	75.45584	412.7076	151.83949	85.3256	352.67265	121.77478	51.57732	576.61472
